<svg xmlns="http://www.w3.org/2000/svg" xmlns:xlink="http://www.w3.org/1999/xlink" viewBox="0 0 1024 1024"><defs><style>.cls-1{fill:url(#radial-gradient);}.cls-2{fill:#fff;}</style><radialGradient id="radial-gradient" cx="513.35" cy="1.52" r="1185.46" gradientUnits="userSpaceOnUse"><stop offset="0" stop-color="#ff66cf"/><stop offset="1" stop-color="#d90045"/></radialGradient></defs><title>FlickPick_Source</title><g id="Layer_2" data-name="Layer 2"><rect class="cls-1" width="1024" height="1024"/><path class="cls-2" d="M796.05,243.74H228a32.87,32.87,0,0,0-32.87,32.87V747.39A32.87,32.87,0,0,0,228,780.26h568.1a32.87,32.87,0,0,0,32.87-32.87V276.61A32.87,32.87,0,0,0,796.05,243.74ZM292.92,736.57H244.48a10.78,10.78,0,0,1-10.78-10.79V677.35a10.78,10.78,0,0,1,10.78-10.79h48.44a10.79,10.79,0,0,1,10.78,10.79v48.43A10.79,10.79,0,0,1,292.92,736.57Zm0-94.79H244.48A10.77,10.77,0,0,1,233.7,631V582.56a10.78,10.78,0,0,1,10.78-10.78h48.44a10.78,10.78,0,0,1,10.78,10.78V631A10.78,10.78,0,0,1,292.92,641.78Zm0-94.78H244.48a10.78,10.78,0,0,1-10.78-10.78V487.78A10.78,10.78,0,0,1,244.48,477h48.44a10.78,10.78,0,0,1,10.78,10.78v48.44A10.78,10.78,0,0,1,292.92,547Zm0-94.78H244.48a10.78,10.78,0,0,1-10.78-10.78V393a10.77,10.77,0,0,1,10.78-10.78h48.44A10.78,10.78,0,0,1,303.7,393v48.44A10.78,10.78,0,0,1,292.92,452.22Zm0-94.78H244.48a10.78,10.78,0,0,1-10.78-10.79V298.22a10.78,10.78,0,0,1,10.78-10.79h48.44a10.79,10.79,0,0,1,10.78,10.79v48.43A10.79,10.79,0,0,1,292.92,357.44ZM605.1,526.12,448.74,616.4a16.31,16.31,0,0,1-24.46-14.13V421.73a16.31,16.31,0,0,1,24.46-14.13L605.1,497.88A16.3,16.3,0,0,1,605.1,526.12ZM779.52,736.57H731.08a10.79,10.79,0,0,1-10.78-10.79V677.35a10.79,10.79,0,0,1,10.78-10.79h48.44a10.78,10.78,0,0,1,10.78,10.79v48.43A10.78,10.78,0,0,1,779.52,736.57Zm0-94.79H731.08A10.78,10.78,0,0,1,720.3,631V582.56a10.78,10.78,0,0,1,10.78-10.78h48.44a10.78,10.78,0,0,1,10.78,10.78V631A10.77,10.77,0,0,1,779.52,641.78Zm0-94.78H731.08a10.78,10.78,0,0,1-10.78-10.78V487.78A10.78,10.78,0,0,1,731.08,477h48.44a10.78,10.78,0,0,1,10.78,10.78v48.44A10.78,10.78,0,0,1,779.52,547Zm0-94.78H731.08a10.78,10.78,0,0,1-10.78-10.78V393a10.78,10.78,0,0,1,10.78-10.78h48.44A10.77,10.77,0,0,1,790.3,393v48.44A10.78,10.78,0,0,1,779.52,452.22Zm0-94.78H731.08a10.79,10.79,0,0,1-10.78-10.79V298.22a10.79,10.79,0,0,1,10.78-10.79h48.44a10.78,10.78,0,0,1,10.78,10.79v48.43A10.78,10.78,0,0,1,779.52,357.44Z"/></g></svg>